<svg xmlns="http://www.w3.org/2000/svg" width="44.316" height="29.425" viewBox="0 0 44.316 29.425"><defs><style>.a{fill:#4ba543;}.b{fill:#43a047;}.c{fill:#fece3f;}.d{fill:#2387eb;}.e{fill:#207bd6;}.f{fill:#efefef;}.g{fill:#dcdcdc;}</style></defs><g transform="translate(0 -86.02)"><path class="a" d="M43.97,115.445H.346A.346.346,0,0,1,0,115.1V86.366a.346.346,0,0,1,.346-.346H43.97a.346.346,0,0,1,.346.346V115.1A.346.346,0,0,1,43.97,115.445Z" transform="translate(0 0)"/><path class="b" d="M481.1,86.02v29.425h2.329a.346.346,0,0,0,.346-.346V86.366a.346.346,0,0,0-.346-.346Z" transform="translate(-439.454)"/><path class="c" d="M68.558,135.125l15.891-11.08a.346.346,0,0,1,.4,0l15.891,11.08a.346.346,0,0,1,0,.568l-15.891,11.08a.346.346,0,0,1-.4,0l-15.891-11.08A.346.346,0,0,1,68.558,135.125Z" transform="translate(-62.489 -34.677)"/><circle class="d" cx="6.42" cy="6.42" r="6.42" transform="translate(15.738 94.313)"/><path class="e" d="M241.885,181.827a6.444,6.444,0,0,0-1.338.14,6.42,6.42,0,0,1,0,12.559,6.42,6.42,0,1,0,1.338-12.7Z" transform="translate(-219.727 -87.514)"/><path class="f" d="M183.12,215.959l12.4,3.22a6.41,6.41,0,0,0,.329-2.03,6.487,6.487,0,0,0-.033-.657l-11.645-3.024A6.383,6.383,0,0,0,183.12,215.959Z" transform="translate(-167.27 -116.417)"/><path class="g" d="M297.539,242.8l2.5.648a6.41,6.41,0,0,0,.329-2.03,6.492,6.492,0,0,0-.033-.657l-2.791-.725a6.457,6.457,0,0,1,0,2.764Z" transform="translate(-271.786 -140.682)"/></g></svg>