<svg xmlns="http://www.w3.org/2000/svg" width="44.316" height="28.591" viewBox="0 0 44.316 28.591"><defs><style>.a{fill:#5055a0;}.b{fill:#e5646e;}.c{fill:#db4655;}.d{fill:#3f3f8f;}.e{fill:#f2f2f6;}.f{fill:#e1e1e6;}</style></defs><g transform="translate(0 -90.839)"><path class="a" d="M24.349,90.839H11.006l-.522,1.43v25.083a1.43,1.43,0,0,0,1.43,1.43H24.349l1.668-1.5v-24.3Z" transform="translate(-9.577 0)"/><path class="b" d="M323.732,118.767h13.342L338.5,118V92.269a1.43,1.43,0,0,0-1.43-1.43H323.732l-1.668,2.145v24.3Z" transform="translate(-294.188)"/><path class="c" d="M344.373,404.645H328.489l1.112,1.43h13.342A1.43,1.43,0,0,0,344.373,404.645Z" transform="translate(-300.057 -286.645)"/><path class="d" d="M1.43,113.712V90.839A1.43,1.43,0,0,0,0,92.269V118a1.43,1.43,0,0,0,1.43,1.43H14.772L15.884,118H5.718a4.289,4.289,0,0,1-4.289-4.289Z" transform="translate(0 0)"/><path class="e" d="M172.11,118.781h12.2l1.125-.781V90.839H170.667V118Z" transform="translate(-155.895 0)"/><path class="f" d="M170.667,404.645h14.772v1.43H170.667Z" transform="translate(-155.895 -286.645)"/></g></svg>