<svg xmlns="http://www.w3.org/2000/svg" width="44.316" height="29.035" viewBox="0 0 44.316 29.035"><defs><style>.a{fill:#fab446;}.b{fill:#73af00;}.c{fill:#f5f5f5;}.d{fill:#41479b;}</style></defs><g transform="translate(0 -88.276)"><path class="a" d="M44.316,97.954H0V89.04a.764.764,0,0,1,.764-.764H43.552a.764.764,0,0,1,.764.764v8.914Z"/><path class="b" d="M43.552,321.587H.764A.764.764,0,0,1,0,320.823v-8.914H44.316v8.914A.764.764,0,0,1,43.552,321.587Z" transform="translate(0 -204.277)"/><rect class="c" width="44.316" height="9.678" transform="translate(0 97.954)"/><g transform="translate(18.051 98.686)"><path class="d" d="M212.659,216.767a4.107,4.107,0,1,1,4.107-4.107A4.111,4.111,0,0,1,212.659,216.767Zm0-7.45A3.343,3.343,0,1,0,216,212.66,3.346,3.346,0,0,0,212.659,209.317Z" transform="translate(-208.552 -208.553)"/><circle class="d" cx="0.466" cy="0.466" r="0.466" transform="translate(3.641 3.641)"/><path class="d" d="M216.691,254.073l-1.183.119-2.542-.119v-.14l2.542-.119,1.183.119Z" transform="translate(-212.584 -249.896)"/><path class="d" d="M256,254.073l1.183.119,2.542-.119v-.14l-2.542-.119-1.183.119Z" transform="translate(-251.893 -249.896)"/><path class="d" d="M253.932,216.692l-.119-1.183.119-2.542h.14l.119,2.542-.119,1.183Z" transform="translate(-249.895 -212.585)"/><path class="d" d="M253.932,256l-.119,1.183.119,2.542h.14l.119-2.542L254.072,256Z" transform="translate(-249.895 -251.894)"/><path class="d" d="M227.634,227.734l-.921-.752L225,225.1l.1-.1,1.882,1.713.752.921Z" transform="translate(-223.576 -223.577)"/><path class="d" d="M255.43,255.53l.752.921,1.882,1.713.1-.1-1.713-1.882-.921-.752Z" transform="translate(-251.372 -251.374)"/><path class="d" d="M255.43,227.635l.752-.921L258.064,225l.1.1-1.713,1.882-.921.752Z" transform="translate(-251.372 -223.577)"/><path class="d" d="M227.634,255.431l-.921.752L225,258.065l.1.1,1.882-1.713.752-.921Z" transform="translate(-223.576 -251.374)"/><path class="d" d="M219.428,255.384l-1.047.563-2.394.862-.053-.129,2.3-1.083,1.139-.342Z" transform="translate(-215.294 -251.213)"/><path class="d" d="M255.744,240.342l1.139-.342,2.3-1.083-.053-.129-2.394.862-1.047.563Z" transform="translate(-251.611 -236.17)"/><path class="d" d="M240.211,219.429l-.563-1.047-.862-2.394.129-.053,1.083,2.3.342,1.139Z" transform="translate(-236.169 -215.295)"/><path class="d" d="M255.254,255.745l.342,1.139,1.083,2.3.129-.053-.862-2.394-.563-1.047Z" transform="translate(-251.212 -251.612)"/><path class="d" d="M219.374,240.342,218.235,240l-2.3-1.083.053-.129,2.394.862,1.047.563Z" transform="translate(-215.294 -236.17)"/><path class="d" d="M255.691,255.384l1.047.563,2.394.862.053-.129-2.3-1.083-1.139-.342Z" transform="translate(-251.611 -251.213)"/><path class="d" d="M255.254,219.375l.342-1.139,1.083-2.3.129.053-.862,2.394-.563,1.047Z" transform="translate(-251.212 -215.295)"/><path class="d" d="M240.211,255.692l-.563,1.047-.862,2.394.129.053,1.083-2.3.342-1.139Z" transform="translate(-236.169 -251.612)"/></g><circle class="c" cx="0.628" cy="0.628" r="0.628" transform="translate(21.53 102.165)"/><circle class="d" cx="0.377" cy="0.377" r="0.377" transform="translate(21.781 102.417)"/></g></svg>