<svg xmlns="http://www.w3.org/2000/svg" width="44.316" height="30.563" viewBox="0 0 44.316 30.563"><defs><style>.a{fill:#e57e25;}.b{fill:#4c8056;}.c{fill:#e6e7e8;}</style></defs><g transform="translate(0.001 -0.5)"><path class="a" d="M34.382,31.063h8.4a1.528,1.528,0,0,0,1.528-1.528V2.029A1.528,1.528,0,0,0,42.787.5H1.528A1.528,1.528,0,0,0,0,2.029V29.535a1.528,1.528,0,0,0,1.528,1.528Zm0,0" transform="translate(0 0)"/><path class="b" d="M13.753.5V31.063H1.528A1.532,1.532,0,0,1,0,29.535V2.028A1.532,1.532,0,0,1,1.528.5Zm0,0" transform="translate(0)"/><path class="c" d="M158.9.5h16.809V31.063H158.9Zm0,0" transform="translate(-145.145)"/></g></svg>