<svg xmlns="http://www.w3.org/2000/svg" width="42.964" height="25" viewBox="0 0 42.964 25"><defs><style>.a{fill:#80bf95;}.b{fill:#e1ebf0;}.c{fill:#d36161;}.d{fill:#cc4646;}</style></defs><g transform="translate(-55.141 -63.058)"><path class="a" d="M55.141,63.059H69.462v25H55.141Zm0,0" transform="translate(0 -0.001)"/><path class="b" d="M207.426,63.059h14.321v25H207.426Zm0,0" transform="translate(-137.964 -0.001)"/><path class="c" d="M372.674,88.058h-12.96v-25h12.96a1.361,1.361,0,0,1,1.361,1.361V86.7a1.361,1.361,0,0,1-1.361,1.361Zm0,0" transform="translate(-275.931 0)"/><path class="d" d="M476.848,63.058v25h1.945a1.361,1.361,0,0,0,1.361-1.361V64.42a1.361,1.361,0,0,0-1.361-1.361Zm0,0" transform="translate(-382.05 0)"/></g></svg>