<svg xmlns="http://www.w3.org/2000/svg" width="44.316" height="29.034" viewBox="0 0 44.316 29.034"><defs><style>.a{fill:#73af00;}.b{fill:#ff4b55;}.c{fill:#464655;}.d{fill:#f5f5f5;}</style></defs><g transform="translate(0 -88.276)"><path class="a" d="M0,335.448H44.316v6.877a.764.764,0,0,1-.764.764H.764A.764.764,0,0,1,0,342.325Z" transform="translate(0 -225.778)"/><path class="b" d="M.764,88.276H43.552a.764.764,0,0,1,.764.764v6.877H0V89.04A.764.764,0,0,1,.764,88.276Z"/><rect class="c" width="44.316" height="13.753" transform="translate(0 95.917)"/><g transform="translate(17.574 98.155)"><path class="d" d="M284.523,226.973l1.15,1.5,1.8-.6a.11.11,0,0,1,.126.167l-1.075,1.558,1.126,1.522a.11.11,0,0,1-.12.171l-1.814-.541-1.1,1.542a.11.11,0,0,1-.2-.061l-.046-1.893-1.806-.569a.11.11,0,0,1,0-.209l1.786-.629-.017-1.893A.11.11,0,0,1,284.523,226.973Z" transform="translate(-275.606 -224.807)"/><path class="d" d="M208.832,210.763a3.713,3.713,0,0,1,0-7.426,3.64,3.64,0,0,1,2.051.631.09.09,0,0,0,.117-.135,4.6,4.6,0,0,0-3.489-1.419,4.639,4.639,0,0,0,.161,9.274A4.6,4.6,0,0,0,211,210.264a.089.089,0,0,0-.117-.133A3.645,3.645,0,0,1,208.832,210.763Z" transform="translate(-203.036 -202.411)"/></g></g></svg>