<svg xmlns="http://www.w3.org/2000/svg" width="325.083" height="53.25" viewBox="0 0 325.083 53.25"><defs><style>.a{fill:#20c3ff;}.b{fill:#50f5ae;}.c{fill:#111;}.d{stroke:#000;stroke-width:0.5px;}</style></defs><g transform="translate(0 0.25)"><g transform="translate(0 0)"><path class="a" d="M386.23,279.215a2.269,2.269,0,1,1,0,4.538H367.318a2.269,2.269,0,1,1,0-4.538ZM376.4,235.291a2.269,2.269,0,1,1,0-4.538h18.913a2.269,2.269,0,1,1,0,4.538Zm.407,7.586a2.269,2.269,0,1,1,0,4.538H355.624a2.269,2.269,0,1,1,0-4.538ZM362.4,259.5a2.269,2.269,0,1,1,0-4.538h37.825a2.269,2.269,0,1,1,0,4.538Zm23.454,12.124a2.269,2.269,0,1,1,0-4.537h21.082a2.269,2.269,0,1,1,0,4.537Z" transform="translate(-351.048 -230.753)"/><path class="b" d="M392.147,279.215a2.269,2.269,0,1,1-2.271,2.269A2.27,2.27,0,0,1,392.147,279.215Zm-28-43.924a2.269,2.269,0,1,1,2.27-2.268A2.27,2.27,0,0,1,364.151,235.291Zm18.574,7.586a2.269,2.269,0,1,1-2.271,2.269A2.27,2.27,0,0,1,382.725,242.877Zm20.539,0a2.252,2.252,0,1,1,0,4.5H391.809a2.252,2.252,0,1,1,0-4.5Zm2.881,12.09a2.269,2.269,0,1,1-2.271,2.269A2.27,2.27,0,0,1,406.146,254.967Zm-32.538,16.662a2.269,2.269,0,1,1,2.271-2.269A2.27,2.27,0,0,1,373.608,271.629Zm-20.946,0a2.269,2.269,0,1,1,0-4.537h11.863a2.269,2.269,0,0,1,0,4.537ZM350.153,259.5a2.269,2.269,0,1,1,2.271-2.269A2.27,2.27,0,0,1,350.153,259.5Z" transform="translate(-347.882 -230.753)"/></g><g transform="translate(84.115 15.969)"><g transform="translate(128.56 0)"><path class="c" d="M637.289,266.186a3.667,3.667,0,0,1,1.944.477,4.686,4.686,0,0,1,1.561,1.847l10.133,18.4a.618.618,0,0,1,.1.509c-.064.127-.191.191-.446.191h-3.887a.68.68,0,0,1-.7-.414l-2.2-3.948-1.912-3.534L637,270.738a.435.435,0,0,0-.351-.223h-.16a.433.433,0,0,0-.35.223l-4.812,8.978-1.912,3.534-2.135,3.948a.706.706,0,0,1-.7.414H622.6c-.255,0-.414-.064-.478-.191a.766.766,0,0,1,.1-.509l10.037-18.4a5.233,5.233,0,0,1,1.5-1.847,3.109,3.109,0,0,1,1.721-.477Z" transform="translate(-622.109 -266.186)"/><path class="a" d="M650.627,297.875l-4.878,8.45a.236.236,0,0,0,.2.354h9.757a.236.236,0,0,0,.2-.354l-4.879-8.45A.236.236,0,0,0,650.627,297.875Z" transform="translate(-636.366 -285.253)"/></g><path class="c" d="M720.25,266.186c.478,0,.7.222.7.668V279.08a9.215,9.215,0,0,0,.191,2.037,2.573,2.573,0,0,0,.669,1.273,2.358,2.358,0,0,0,1.211.668,8.6,8.6,0,0,0,1.976.192h12.427a.591.591,0,0,1,.67.668v3.025a.591.591,0,0,1-.67.669H724.839a15.548,15.548,0,0,1-3.951-.446,5.976,5.976,0,0,1-2.645-1.369,5.774,5.774,0,0,1-1.53-2.515,14.284,14.284,0,0,1-.446-3.757V266.854c0-.446.223-.668.7-.668Z" transform="translate(-551.156 -266.186)"/><g transform="translate(32.77 0)"><path class="c" d="M795.753,288.47v4.648a14.283,14.283,0,0,0,.446,3.757,5.767,5.767,0,0,0,1.53,2.515,5.965,5.965,0,0,0,2.645,1.369,15.524,15.524,0,0,0,3.951.446H817.8a.614.614,0,0,0,.7-.668v-2.929a.614.614,0,0,0-.7-.668H804.419a8.432,8.432,0,0,1-1.976-.191,2.573,2.573,0,0,1-1.275-.669,2.414,2.414,0,0,1-.637-1.3,8.8,8.8,0,0,1-.189-1.923c.056,0,.113.008.172.008l10.287.027.036.006,1.148,0,1.536,0,.017-.01,3.909-.025c.551,0,.974-.2.974-.612v-3.158c0-.39-.526-.584-1.078-.584" transform="translate(-795.753 -279.778)"/><path class="a" d="M818.526,270.792a.624.624,0,0,0,.7-.7v-2.9a.615.615,0,0,0-.7-.669H805.048a15.53,15.53,0,0,0-3.951.446,6,6,0,0,0-2.645,1.4,5.457,5.457,0,0,0-1.5,2.407" transform="translate(-796.951 -266.525)"/></g><path class="c" d="M9.078-38.5a10.151,10.151,0,0,1,1.224.061,2.413,2.413,0,0,1,.857.26,2.88,2.88,0,0,1,.7.551,9.7,9.7,0,0,1,.765.934L24.016-21.757a.423.423,0,0,0,.4.214h.275q.245,0,.245-.306V-37.827a.6.6,0,0,1,.673-.673h3.214a.6.6,0,0,1,.673.673v17.57a3.55,3.55,0,0,1-.673,2.525,2.878,2.878,0,0,1-2.081.658H24.108a9.454,9.454,0,0,1-1.178-.061,2.62,2.62,0,0,1-.842-.245,2.8,2.8,0,0,1-.719-.536,9.188,9.188,0,0,1-.811-.964L9.14-33.817a.525.525,0,0,0-.4-.214H8.466q-.245,0-.245.306v15.978a.6.6,0,0,1-.673.673H4.334q-.7,0-.7-.673v-17.57A3.55,3.55,0,0,1,4.3-37.842,2.878,2.878,0,0,1,6.385-38.5Z" transform="translate(60.65 38.5)"/><path class="c" d="M25.921-39.9q.7,0,.7.673v3a.622.622,0,0,1-.7.7H16.31v16.376a.6.6,0,0,1-.673.673H12.3a.6.6,0,0,1-.673-.673V-35.523H2.015a.622.622,0,0,1-.7-.7v-3q0-.673.7-.673Z" transform="translate(95.739 39.9)"/><g transform="translate(0 0)"><path class="c" d="M15.243,21.427H.918A.814.814,0,0,1,0,20.508V17.173H12.747l2.374,0a8.945,8.945,0,0,0,2.265-.245,3.311,3.311,0,0,0,1.485-.8,3.141,3.141,0,0,0,.812-1.469,8.994,8.994,0,0,0,.244-2.265V9.03a8.983,8.983,0,0,0-.244-2.265A3.141,3.141,0,0,0,18.87,5.3a3.322,3.322,0,0,0-1.485-.8,8.987,8.987,0,0,0-2.265-.245H12.747V4.242H0V.918A.814.814,0,0,1,.918,0H15.243A15.757,15.757,0,0,1,19.5.5a7.012,7.012,0,0,1,2.907,1.561,6.285,6.285,0,0,1,1.669,2.693,12.559,12.559,0,0,1,.535,3.873v4.162a12.546,12.546,0,0,1-.535,3.872,6.291,6.291,0,0,1-1.669,2.694A7.012,7.012,0,0,1,19.5,20.922,15.793,15.793,0,0,1,15.243,21.427Z" transform="translate(0 0)"/><rect class="c" width="4.511" height="12.604" transform="translate(0 8.823)"/></g></g><g transform="translate(291.513 15.969)"><g transform="translate(0 0)"><g transform="translate(8.961 0)"><path class="c" d="M15.243,21.427H.918A.814.814,0,0,1,0,20.508V17.173H12.747l2.374,0a8.945,8.945,0,0,0,2.265-.245,3.311,3.311,0,0,0,1.485-.8,3.141,3.141,0,0,0,.812-1.469,8.994,8.994,0,0,0,.244-2.265V9.03a8.983,8.983,0,0,0-.244-2.265A3.141,3.141,0,0,0,18.87,5.3a3.322,3.322,0,0,0-1.485-.8,8.987,8.987,0,0,0-2.265-.245H12.747V4.242H0V.918A.814.814,0,0,1,.918,0H15.243A15.757,15.757,0,0,1,19.5.5a7.012,7.012,0,0,1,2.907,1.561,6.285,6.285,0,0,1,1.669,2.693,12.559,12.559,0,0,1,.535,3.873v4.162a12.546,12.546,0,0,1-.535,3.872,6.291,6.291,0,0,1-1.669,2.694A7.012,7.012,0,0,1,19.5,20.922,15.793,15.793,0,0,1,15.243,21.427Z" transform="translate(0 0)"/><path class="c" d="M0,0H4.511V10.083H0Z" transform="translate(0 8.32)"/></g><rect class="a" width="4.16" height="15.969" rx="2.08" transform="translate(0 5.703)"/></g><path class="b" d="M2.121,4.238a2.119,2.119,0,1,1,2.12-2.118A2.12,2.12,0,0,1,2.121,4.238Z" transform="translate(4.238) rotate(90)"/></g><path class="d" d="M12.009,10H7.334a.334.334,0,1,0,0,.668h2v5.816a.334.334,0,1,0,.668,0V10.668h2a.334.334,0,1,0,0-.668Zm7.239.041a.334.334,0,0,0-.371.106l-2.341,5.832-2.479-5.831a.334.334,0,0,0-.6.208v6.15a.334.334,0,1,0,.668,0v-5.2l2.145,5.414a.346.346,0,0,0,.522,0L18.8,11.308v5.2a.334.334,0,1,0,.668,0v-6.15a.334.334,0,0,0-.224-.315Z" transform="translate(59.156 -10)"/></g></svg>