<svg xmlns="http://www.w3.org/2000/svg" width="44.339" height="29.05" viewBox="0 0 44.339 29.05"><defs><style>.a{fill:#d36161;}.b{fill:#73af00;}.c{fill:#fff;opacity:0.69;}.d{fill:#ffe15a;}.e{fill:#ff4b55;}.f{fill:#f5f5f5;}.g{fill:#41479b;}</style></defs><g transform="translate(0 -88.275)"><path class="a" d="M41.018,117.325H3.321A3.321,3.321,0,0,1,0,114V91.6a3.321,3.321,0,0,1,3.321-3.321h37.7A3.321,3.321,0,0,1,44.339,91.6V114A3.321,3.321,0,0,1,41.018,117.325Z"/><path class="b" d="M3.321,88.275A3.321,3.321,0,0,0,0,91.6V114a3.321,3.321,0,0,0,3.321,3.321H16.054V88.275Z"/><path class="c" d="M3.321,88.275A3.321,3.321,0,0,0,0,91.6V114a3.321,3.321,0,0,0,3.321,3.321H16.054V88.275Z"/><circle class="d" cx="6.874" cy="6.874" r="6.874" transform="translate(9.186 95.926)"/><path class="e" d="M147.426,213.39v3.058a2.293,2.293,0,1,1-4.587,0V213.39h4.587m.764-1.529h-6.116a.765.765,0,0,0-.764.764v3.822a3.822,3.822,0,0,0,7.645,0v-3.822a.764.764,0,0,0-.764-.764Z" transform="translate(-129.073 -112.883)"/><path class="f" d="M163.553,229.516v3.058a2.293,2.293,0,0,1-4.587,0v-3.058h4.587" transform="translate(-145.2 -129.01)"/><g transform="translate(12.614 99.36)"><circle class="d" cx="0.382" cy="0.382" r="0.382"/><circle class="d" cx="0.382" cy="0.382" r="0.382" transform="translate(6.116)"/><circle class="d" cx="0.382" cy="0.382" r="0.382" transform="translate(0 3.058)"/><circle class="d" cx="0.382" cy="0.382" r="0.382" transform="translate(6.116 3.058)"/><circle class="d" cx="0.382" cy="0.382" r="0.382" transform="translate(3.058)"/><circle class="d" cx="0.382" cy="0.382" r="0.382" transform="translate(5.353 5.877)"/><circle class="d" cx="0.382" cy="0.382" r="0.382" transform="translate(0.808 5.877)"/></g><g transform="translate(14.236 101.045)"><path class="g" d="M180.733,253.761v.658a.494.494,0,0,1-.988,0v-.658h.988" transform="translate(-178.415 -252.2)"/><path class="g" d="M180.733,235.74v.658a.494.494,0,1,1-.988,0v-.658h.988" transform="translate(-178.415 -235.74)"/><path class="g" d="M180.733,271.969v.658a.494.494,0,1,1-.988,0v-.658h.988" transform="translate(-178.415 -268.832)"/><path class="g" d="M196.09,253.761v.658a.494.494,0,0,1-.988,0v-.658h.988" transform="translate(-192.442 -252.2)"/><path class="g" d="M165.378,253.761v.658a.494.494,0,0,1-.988,0v-.658h.988" transform="translate(-164.39 -252.2)"/></g></g></svg>