<svg xmlns="http://www.w3.org/2000/svg" width="59" height="59" viewBox="0 0 59 59"><defs><style>.a{fill:#fd3;}</style></defs><path class="a" d="M44.634,34.133H43.65a.983.983,0,0,0,0,1.967h.983a.983.983,0,0,0,0-1.967Z" transform="translate(-37.75 -30.2)"/><path class="a" d="M87.3,34.133h-.983a.983.983,0,0,0,0,1.967H87.3a.983.983,0,1,0,0-1.967Z" transform="translate(-75.501 -30.2)"/><path class="a" d="M129.968,34.133h-.983a.983.983,0,0,0,0,1.967h.983a.983.983,0,0,0,0-1.967Z" transform="translate(-113.251 -30.2)"/><path class="a" d="M198.2,34.133H171.65a.983.983,0,0,0,0,1.967H198.2a.983.983,0,1,0,0-1.967Z" transform="translate(-151 -30.2)"/><path class="a" d="M57.033,35.4H56.05V30.483a10.766,10.766,0,0,0-2.95-7.4V4.917A4.923,4.923,0,0,0,48.183,0H4.917A4.923,4.923,0,0,0,0,4.917V44.25a4.923,4.923,0,0,0,4.917,4.917h26.55v2.95A6.891,6.891,0,0,0,38.35,59H52.117A6.891,6.891,0,0,0,59,52.117V37.367A1.967,1.967,0,0,0,57.033,35.4Zm-2.95-4.917V35.4h-17.7V30.483a8.85,8.85,0,0,1,17.7,0ZM1.967,4.917a2.95,2.95,0,0,1,2.95-2.95H48.183a2.95,2.95,0,0,1,2.95,2.95v2.95H1.967Zm29.5,32.45V47.2H4.917a2.95,2.95,0,0,1-2.95-2.95V9.833H51.133v11.6a10.8,10.8,0,0,0-16.717,9.055V35.4h-.983A1.967,1.967,0,0,0,31.467,37.367Zm25.567,1.967h-2.95a.983.983,0,1,0,0,1.967h2.95v1.967h-2.95a.983.983,0,1,0,0,1.967h2.95V47.2h-2.95a.983.983,0,1,0,0,1.967h2.95v1.967h-2.95a.983.983,0,1,0,0,1.967h2.852a4.925,4.925,0,0,1-4.818,3.933H38.35A4.925,4.925,0,0,1,33.532,53.1h2.852a.983.983,0,1,0,0-1.967h-2.95V49.167h2.95a.983.983,0,1,0,0-1.967h-2.95V45.233h2.95a.983.983,0,1,0,0-1.967h-2.95V41.3h2.95a.983.983,0,0,0,0-1.967h-2.95V37.367h23.6v1.967Z"/><path class="a" d="M368.908,372.652V374.8a.983.983,0,0,0,1.967,0v-2.148a2.948,2.948,0,1,0-1.967,0Zm.983-3.752a.983.983,0,1,1-.983.983A.983.983,0,0,1,369.891,368.9Z" transform="translate(-324.658 -324.65)"/><path class="a" d="M62.017,125.367a.983.983,0,0,0-.983.983v2.95H53.167v-7.867H57.1a.983.983,0,1,0,0-1.967H53.167a1.967,1.967,0,0,0-1.967,1.967V129.3a1.967,1.967,0,0,0,1.967,1.967h7.867A1.967,1.967,0,0,0,63,129.3v-2.95A.983.983,0,0,0,62.017,125.367Z" transform="translate(-45.3 -105.7)"/><path class="a" d="M78.571,123.692a.983.983,0,0,0-1.39,1.39l1.967,1.967a.983.983,0,0,0,.7.288h.044a.984.984,0,0,0,.711-.352l4.917-5.9A.984.984,0,1,0,84,119.824L79.776,124.9Z" transform="translate(-68.042 -105.704)"/><path class="a" d="M62.017,270.434a.983.983,0,0,0-.983.983v2.95H53.167V266.5H57.1a.983.983,0,1,0,0-1.967H53.167A1.967,1.967,0,0,0,51.2,266.5v7.867a1.967,1.967,0,0,0,1.967,1.967h7.867A1.967,1.967,0,0,0,63,274.367v-2.95A.984.984,0,0,0,62.017,270.434Z" transform="translate(-45.3 -234.051)"/><path class="a" d="M78.571,268.76a.983.983,0,0,0-1.39,1.39l1.967,1.967a.983.983,0,0,0,.7.288h.044a.984.984,0,0,0,.711-.352l4.917-5.9a.984.984,0,1,0-1.51-1.26l-4.228,5.074Z" transform="translate(-68.042 -234.055)"/><path class="a" d="M180.183,129.967h7.867a.983.983,0,0,0,0-1.967h-7.867a.983.983,0,0,0,0,1.967Z" transform="translate(-158.55 -113.25)"/><path class="a" d="M193.95,171.65a.983.983,0,0,0-.983-.983H180.183a.983.983,0,0,0,0,1.967h12.783A.983.983,0,0,0,193.95,171.65Z" transform="translate(-158.55 -151)"/><path class="a" d="M188.05,273.067h-7.867a.983.983,0,1,0,0,1.967h7.867a.983.983,0,1,0,0-1.967Z" transform="translate(-158.55 -241.6)"/><path class="a" d="M187.068,315.733h-6.883a.983.983,0,1,0,0,1.967h6.883a.983.983,0,1,0,0-1.967Z" transform="translate(-158.551 -279.35)"/></svg>