<svg xmlns="http://www.w3.org/2000/svg" width="47.106" height="58.883" viewBox="0 0 47.106 58.883"><defs><style>.a{fill:#75ff83;}</style></defs><path class="a" d="M34.939,5.959,33.291,8.707H18.144A2.947,2.947,0,0,0,15.2,11.651V59.739a2.947,2.947,0,0,0,2.944,2.944H59.362a2.947,2.947,0,0,0,2.944-2.944V11.651a2.947,2.947,0,0,0-2.944-2.944H44.216L42.567,5.96a4.448,4.448,0,0,0-7.628,0Zm24.423,4.71a.983.983,0,0,1,.981.981V59.739a.983.983,0,0,1-.981.981H18.144a.983.983,0,0,1-.981-.981V11.651a.983.983,0,0,1,.981-.981H32.113l-1.178,1.963H20.107a.981.981,0,0,0-.981.981V57.776a.981.981,0,0,0,.981.981H57.4a.981.981,0,0,0,.981-.981V13.614a.981.981,0,0,0-.981-.981H46.571L45.393,10.67ZM33.208,18.521H44.3A3.284,3.284,0,0,0,47.522,14.6h8.9v42.2H21.088V14.6h8.9a3.284,3.284,0,0,0,3.224,3.926ZM38.753,5.763a2.5,2.5,0,0,1,2.131,1.207l4.55,7.583A1.324,1.324,0,0,1,44.3,16.558H33.208a1.324,1.324,0,0,1-1.135-2.005l4.55-7.583a2.5,2.5,0,0,1,2.131-1.207Z" transform="translate(-15.2 -3.8)"/><path class="a" d="M58.9,11.4h1.963v3.926H58.9Z" transform="translate(-36.328 -7.474)"/><circle class="a" cx="0.981" cy="0.981" r="0.981" transform="translate(22.572 8.832)"/><path class="a" d="M42.4,80.356l-6.87,6.87,1.388,1.388,3.232-3.232v4.5H34.263V83.995h2.944V82.032H33.281a.981.981,0,0,0-.981.981v7.851a.981.981,0,0,0,.981.981h7.851a.981.981,0,0,0,.981-.981V83.42l1.675-1.675Z" transform="translate(-23.468 -40.814)"/><path class="a" d="M57,87.4h2.944v1.963H57Z" transform="translate(-35.41 -44.219)"/><path class="a" d="M66.5,87.4H77.3v1.963H66.5Z" transform="translate(-40.003 -44.219)"/><path class="a" d="M74.1,95h2.944v1.963H74.1Z" transform="translate(-43.677 -47.894)"/><path class="a" d="M57,95h6.87v1.963H57Z" transform="translate(-35.41 -47.894)"/><path class="a" d="M35.532,64.426l1.388,1.388,3.232-3.232v4.5H34.263V61.195h2.944V59.232H33.281a.981.981,0,0,0-.981.981v7.851a.981.981,0,0,0,.981.981h7.851a.981.981,0,0,0,.981-.981V60.62l1.675-1.675L42.4,57.556Z" transform="translate(-23.468 -29.79)"/><path class="a" d="M57,64.6h2.944v1.963H57Z" transform="translate(-35.41 -33.196)"/><path class="a" d="M66.5,64.6H77.3v1.963H66.5Z" transform="translate(-40.003 -33.196)"/><path class="a" d="M74.1,72.2h2.944v1.963H74.1Z" transform="translate(-43.677 -36.87)"/><path class="a" d="M57,72.2h6.87v1.963H57Z" transform="translate(-35.41 -36.87)"/><path class="a" d="M36.919,43.014l3.232-3.232v4.5H34.263V38.395h2.944V36.432H33.281a.981.981,0,0,0-.981.981v7.851a.981.981,0,0,0,.981.981h7.851a.981.981,0,0,0,.981-.981V37.82l1.675-1.675L42.4,34.757l-6.87,6.87Z" transform="translate(-23.467 -18.767)"/><path class="a" d="M57,41.8h2.944v1.963H57Z" transform="translate(-35.41 -22.172)"/><path class="a" d="M66.5,41.8H77.3v1.963H66.5Z" transform="translate(-40.003 -22.172)"/><path class="a" d="M74.1,49.4h2.944v1.963H74.1Z" transform="translate(-43.677 -25.847)"/><path class="a" d="M57,49.4h6.87v1.963H57Z" transform="translate(-35.41 -25.847)"/></svg>