<svg xmlns="http://www.w3.org/2000/svg" width="65.658" height="59.526" viewBox="0 0 65.658 59.526"><defs><style>.a{fill:none;stroke:#7DDBFE;stroke-width:0.5px;}</style></defs><g transform="translate(-3.355 -8.851)"><g transform="translate(3.605 9.101)"><g transform="translate(0.558 16.399)"><path class="a" d="M64.142,38.494H56.211a15.18,15.18,0,0,1-30.333,0H17.946A3.347,3.347,0,0,0,14.6,41.841v33.21H67.49V41.841a3.347,3.347,0,0,0-3.347-3.347Z" transform="translate(-9.023 -38.494)"/><path class="a" d="M65.56,47.331H58.269a15.182,15.182,0,0,1-28.234,0H22.743a1.116,1.116,0,0,0-1.116,1.116V78.959H66.676V48.447a1.116,1.116,0,0,0-1.116-1.116Z" transform="translate(-12.13 -42.401)"/><path class="a" d="M4.605,104.02v2.194a3.317,3.317,0,0,0,3.317,3.317H65.33a3.317,3.317,0,0,0,3.317-3.317V104.02Z" transform="translate(-4.605 -67.462)"/><path class="a" d="M42.949,104.02v1.111a1.679,1.679,0,0,0,1.679,1.679h17.9a1.679,1.679,0,0,0,1.679-1.679V104.02Z" transform="translate(-21.556 -67.462)"/></g><path class="a" d="M59.384,86.706a3.3,3.3,0,0,1-3.292-3.557L57.127,69.8h4.514l1.034,13.348a3.3,3.3,0,0,1-3.292,3.557Z" transform="translate(-26.804 -35.936)"/><path class="a" d="M58.324,64.063a15.2,15.2,0,0,1-4.183-.588A2.191,2.191,0,0,0,55.888,67h4.873a2.191,2.191,0,0,0,1.746-3.529,15.176,15.176,0,0,1-4.183.588Z" transform="translate(-25.745 -33.139)"/><circle class="a" cx="15.183" cy="15.183" r="15.183" transform="translate(17.396 0.558)"/><circle class="a" cx="12.216" cy="12.216" r="12.216" transform="translate(20.364 3.525)"/><path class="a" d="M53.25,40.265h-.045A1.627,1.627,0,0,1,52,39.679l-4.072-4.886a1.629,1.629,0,0,1,2.5-2.085l2.888,3.466,7.535-8.093A1.628,1.628,0,0,1,63.236,30.3l-8.794,9.445a1.623,1.623,0,0,1-1.191.519Z" transform="translate(-23.033 -17.262)"/><path class="a" d="M52.321,17.094A12.214,12.214,0,0,1,64.5,28.472c.019-.277.032-.555.032-.837a12.216,12.216,0,0,0-24.431,0c0,.282.013.56.032.837A12.213,12.213,0,0,1,52.32,17.094Z" transform="translate(-19.741 -11.895)"/><path class="a" d="M101.933,66.257a.557.557,0,0,0-.558.558v5.439a.558.558,0,1,0,1.116,0V66.815A.557.557,0,0,0,101.933,66.257Z" transform="translate(-46.828 -34.369)"/><path class="a" d="M68.206,61.5H63.188V28.847a3.91,3.91,0,0,0-3.905-3.905h-7.36c0-.033,0-.066,0-.1a15.741,15.741,0,1,0-31.482,0c0,.033,0,.066,0,.1h-7.36a3.91,3.91,0,0,0-3.905,3.905V61.5H4.163a.558.558,0,0,0-.558.558v2.195A3.879,3.879,0,0,0,7.48,68.127H64.888a3.879,3.879,0,0,0,3.875-3.875V62.057a.557.557,0,0,0-.557-.558ZM59.283,26.058a2.793,2.793,0,0,1,2.79,2.79V61.5H59.267V49.682a.558.558,0,0,0-1.116,0V61.5H14.218V31.546a.558.558,0,0,1,.558-.558h6.918a15.818,15.818,0,0,0,9.492,8.777,2.7,2.7,0,0,0-.2,1,2.757,2.757,0,0,0,2.339,2.718l-.991,12.789a3.859,3.859,0,1,0,7.7,0l-.991-12.789a2.757,2.757,0,0,0,2.34-2.718,2.7,2.7,0,0,0-.2-1,15.82,15.82,0,0,0,9.493-8.777h6.918a.558.558,0,0,1,.558.558v7.443a.558.558,0,1,0,1.116,0V31.546a1.676,1.676,0,0,0-1.674-1.674H51.1a15.627,15.627,0,0,0,.777-3.814ZM40.114,40.086a1.622,1.622,0,0,1,.151.678,1.646,1.646,0,0,1-1.644,1.644H33.748A1.646,1.646,0,0,1,32.1,40.764a1.62,1.62,0,0,1,.151-.678,15.8,15.8,0,0,0,7.859,0Zm-5.671,3.438h3.481l1,12.833a2.744,2.744,0,1,1-5.471,0Zm1.741-33.308A14.625,14.625,0,1,1,21.559,24.842,14.642,14.642,0,0,1,36.184,10.217ZM10.3,28.847a2.793,2.793,0,0,1,2.79-2.79h7.409a15.627,15.627,0,0,0,.777,3.814h-6.5A1.676,1.676,0,0,0,13.1,31.546V61.5H10.3V28.847Zm57.351,35.4a2.762,2.762,0,0,1-2.759,2.759H7.48a2.762,2.762,0,0,1-2.759-2.759V62.615H67.648Z" transform="translate(-3.605 -9.101)"/><path class="a" d="M51.13,39.595a2.183,2.183,0,0,0,1.615.785h.065a2.2,2.2,0,0,0,1.6-.7L63.2,30.239a2.186,2.186,0,1,0-3.2-2.98l-7.1,7.629-2.483-2.98a2.187,2.187,0,0,0-3.36,2.8Zm-3.077-7.109a1.073,1.073,0,0,1,1.508.137l2.888,3.466a.558.558,0,0,0,.413.2.551.551,0,0,0,.423-.177l7.535-8.093a1.057,1.057,0,0,1,.745-.34,1.021,1.021,0,0,1,.768.286,1.073,1.073,0,0,1,.054,1.513l-8.794,9.446a1.075,1.075,0,0,1-.784.341h-.03a1.071,1.071,0,0,1-.793-.384L47.915,34a1.073,1.073,0,0,1,.137-1.509Z" transform="translate(-22.591 -16.82)"/><path class="a" d="M51.878,39.967A12.773,12.773,0,1,0,39.105,27.194,12.788,12.788,0,0,0,51.878,39.967Zm0-24.431A11.658,11.658,0,1,1,40.221,27.193,11.671,11.671,0,0,1,51.878,15.536Z" transform="translate(-19.299 -11.452)"/></g></g></svg>