<svg xmlns="http://www.w3.org/2000/svg" width="58.759" height="58.759" viewBox="0 0 58.759 58.759"><path d="M29.026,46.2a1.014,1.014,0,0,1-1.013,1.013H27v2.026h1.013A3.043,3.043,0,0,0,31.052,46.2V31H29.026Z" transform="translate(-2.686 -2.634)"/><path d="M36.039,49.235a1.014,1.014,0,0,1-1.013-1.013V31H33V48.222a3.043,3.043,0,0,0,3.039,3.039h1.2a12.142,12.142,0,0,1-.182-2.026Z" transform="translate(-2.608 -2.634)"/><path d="M13.092,29.34h38.5a7.074,7.074,0,0,0,5.475-2.583,7.153,7.153,0,0,0,1.477-5.941,7.034,7.034,0,0,0-5.579-5.53,7.425,7.425,0,0,0-1.43-.114,9.027,9.027,0,0,1,.058,1,9.128,9.128,0,0,1-9.118,9.118V23.262a7.092,7.092,0,1,0,0-14.183,7.007,7.007,0,0,0-3.147.745l-.877.436L37.982,9.4a12.152,12.152,0,0,0-22.727,4,9.1,9.1,0,0,1,6.955,8.852H20.183A7.073,7.073,0,0,0,17.6,16.774a7.154,7.154,0,0,0-5.94-1.477A7.038,7.038,0,0,0,6.14,20.816a7.153,7.153,0,0,0,1.477,5.941A7.074,7.074,0,0,0,13.092,29.34ZM42.471,19.209A3.043,3.043,0,0,0,45.51,16.17h2.026a5.071,5.071,0,0,1-5.065,5.065ZM27.275,5.026a10.079,10.079,0,0,1,9.077,5.627l-1.814.9a8.063,8.063,0,0,0-7.263-4.5ZM21.2,25.288h2.026v2.026H21.2Zm-2.026,0v2.026H17.144V25.288Zm-6.078-8.1a5.071,5.071,0,0,1,5.065,5.065H16.131a3.043,3.043,0,0,0-3.039-3.039Zm0,8.1h2.026v2.026H13.092Z" transform="translate(-2.961 -3)"/><path d="M51.113,53H49.087a7.042,7.042,0,0,0-6.737,4.952,11.1,11.1,0,0,0,15.5,0A7.038,7.038,0,0,0,51.113,53Z" transform="translate(-2.485 -2.346)"/><path d="M50.144,39A11.139,11.139,0,0,0,40.9,56.359a9.055,9.055,0,0,1,5.233-4.7,6.079,6.079,0,1,1,8.026,0,9.052,9.052,0,0,1,5.233,4.7A11.138,11.138,0,0,0,50.144,39Z" transform="translate(-2.529 -2.529)"/><circle cx="4" cy="4" r="4" transform="translate(43.799 40.057)"/><path d="M7,47H21.183v2.026H7Z" transform="translate(-2.948 -2.424)"/><path d="M3,58.039a3.043,3.043,0,0,0,3.039,3.039H22.249a3.043,3.043,0,0,0,3.039-3.039V55H3Zm18.235-1.013h2.026v2.026H21.235Zm-4.052,0h2.026v2.026H17.183Zm-4.052,0h2.026v2.026H13.131Z" transform="translate(-3 -2.32)"/><path d="M22.249,35H6.039A3.043,3.043,0,0,0,3,38.039v15.2H25.288v-15.2A3.043,3.043,0,0,0,22.249,35Zm1.013,14.183a2.028,2.028,0,0,1-2.026,2.026H7.052a2.028,2.028,0,0,1-2.026-2.026V47.157a2.028,2.028,0,0,1,2.026-2.026H21.235a2.028,2.028,0,0,1,2.026,2.026Zm0-8.1A2.028,2.028,0,0,1,21.235,43.1H7.052a2.028,2.028,0,0,1-2.026-2.026V39.052a2.028,2.028,0,0,1,2.026-2.026H21.235a2.028,2.028,0,0,1,2.026,2.026Z" transform="translate(-3 -2.581)"/><path d="M7,39H21.183v2.026H7Z" transform="translate(-2.948 -2.529)"/></svg>